<?xml version="1.0" encoding="UTF-8"?>
<svg version="1.1" xmlns="http://www.w3.org/2000/svg" width="50" height="50">
<path d="M0 0 C12.54 0 25.08 0 38 0 C38.4375 17.9375 38.4375 17.9375 38.56811523 23.60522461 C38.60622293 25.07927433 38.64469075 26.5533148 38.68359375 28.02734375 C38.70006958 28.79953247 38.71654541 29.57172119 38.73352051 30.36730957 C38.50394946 33.98441739 38.50394946 33.98441739 40 37 C40.04080783 38.99958364 40.04254356 41.00045254 40 43 C39.34 43 38.68 43 38 43 C38 45.31 38 47.62 38 50 C28.76 50 19.52 50 10 50 C14.02065458 44.63912722 17.85538045 39.83182865 22.36328125 34.98046875 C24.20033685 32.99997183 24.20033685 32.99997183 25 30 C24.24652725 27.44934058 24.24652725 27.44934058 23.0625 24.8125 C22.68222656 23.91144531 22.30195313 23.01039062 21.91015625 22.08203125 C21.60980469 21.39496094 21.30945313 20.70789063 21 20 C22.98 20 24.96 20 27 20 C30 25.75 30 25.75 30 28 C30.99 28 31.98 28 33 28 C31.02 24.37 29.04 20.74 27 17 C18.93133503 16.43691954 18.93133503 16.43691954 12 20 C11.360625 20.721875 10.72125 21.44375 10.0625 22.1875 C8 24 8 24 4.75 24.25 C3.8425 24.1675 2.935 24.085 2 24 C2 25.32 2 26.64 2 28 C5.77545388 26.90931332 8.47043472 26.0916909 11 23 C14.34861059 24.38563197 16.29014301 25.76027096 18 29 C17.65232335 34.35738111 15.56885116 38.32633266 12.9375 42.875 C12.57978516 43.56335937 12.22207031 44.25171875 11.85351562 44.9609375 C11.47775391 45.610625 11.10199219 46.2603125 10.71484375 46.9296875 C10.38605225 47.51991699 10.05726074 48.11014648 9.71850586 48.71826172 C8 50 8 50 0 50 C0 33.5 0 17 0 0 Z M8 7 C7.83333333 10 7.83333333 10 8 13 C9.11836224 14.34404775 9.11836224 14.34404775 12 14.125 C14.88163776 14.34404775 14.88163776 14.34404775 16 13 C16.16666667 10 16.16666667 10 16 7 C14.88163776 5.65595225 14.88163776 5.65595225 12 5.875 C9.11836224 5.65595225 9.11836224 5.65595225 8 7 Z M25 37 C24.01 38.485 24.01 38.485 23 40 C27.62 40 32.24 40 37 40 C37 39.34 37 38.68 37 38 C34.53183586 36.76591793 32.75338799 36.79802421 30 36.75 C29.113125 36.72421875 28.22625 36.6984375 27.3125 36.671875 C26.549375 36.78015625 25.78625 36.8884375 25 37 Z " fill="#FFFFFF" transform="translate(6,0)"/>
</svg>
